<svg width="36" height="36" viewBox="0 0 36 36" fill="none" xmlns="http://www.w3.org/2000/svg">
<path d="M19.4059 11.9531C18.0167 11.9532 16.6551 12.3415 15.4749 13.0743C14.2947 13.8071 13.3428 14.8551 12.7265 16.1001C12.1103 17.3452 11.8543 18.7377 11.9874 20.1205C12.1205 21.5033 12.6375 22.8213 13.4799 23.9259C14.9147 25.0195 16.6974 25.5556 18.4974 25.4347C20.2974 25.3138 21.9924 24.5441 23.2681 23.2685C24.5437 21.9928 25.3134 20.2978 25.4343 18.4978C25.5552 16.6978 25.0191 14.9151 23.9255 13.4803C22.6282 12.4876 21.0395 11.9508 19.4059 11.9531Z" fill="#FBC01A" fill-opacity="0.9"/>
<path d="M10.6102 17.0243C10.568 17.3479 10.5469 17.6739 10.5469 18.0002C10.5465 19.7783 11.1817 21.4979 12.338 22.8487C13.4943 24.1995 15.0954 25.0924 16.8523 25.3662C18.6091 25.64 20.406 25.2767 21.9185 24.3419C23.431 23.407 24.5595 21.9623 25.1002 20.2684C25.6409 18.5745 25.5582 16.7432 24.867 15.1049C24.1759 13.4667 22.9218 12.1295 21.3312 11.3347C19.7407 10.54 17.9184 10.3401 16.1933 10.7711C14.4683 11.2021 12.9542 12.2357 11.9243 13.6851" stroke="#FBC01A" stroke-opacity="0.9" stroke-width="1.6" stroke-linecap="round" stroke-linejoin="round"/>
<path d="M11.0771 15.2354C11.0655 15.2642 11.0539 15.2923 11.043 15.3211" stroke="#FBC01A" stroke-opacity="0.9" stroke-width="2" stroke-linecap="round" stroke-linejoin="round"/>
<path d="M18 4.5V8.64844" stroke="#FBC01A" stroke-opacity="0.9" stroke-width="1.6" stroke-linecap="round" stroke-linejoin="round"/>
<path d="M18 27.3516V31.4993" stroke="#FBC01A" stroke-opacity="0.9" stroke-width="1.6" stroke-linecap="round" stroke-linejoin="round"/>
<path d="M8.45312 8.4541L11.3866 11.3868" stroke="#FBC01A" stroke-opacity="0.9" stroke-width="1.6" stroke-linecap="round" stroke-linejoin="round"/>
<path d="M24.6133 24.6123L27.5467 27.5457" stroke="#FBC01A" stroke-opacity="0.9" stroke-width="1.6" stroke-linecap="round" stroke-linejoin="round"/>
<path d="M4.5 18H8.64844" stroke="#FBC01A" stroke-opacity="0.9" stroke-width="1.6" stroke-linecap="round" stroke-linejoin="round"/>
<path d="M27.3516 18H31.5" stroke="#FBC01A" stroke-opacity="0.9" stroke-width="1.6" stroke-linecap="round" stroke-linejoin="round"/>
<path d="M8.45312 27.5457L11.3866 24.6123" stroke="#FBC01A" stroke-opacity="0.9" stroke-width="1.6" stroke-linecap="round" stroke-linejoin="round"/>
<path d="M24.6133 11.3868L27.5467 8.4541" stroke="#FBC01A" stroke-opacity="0.9" stroke-width="1.6" stroke-linecap="round" stroke-linejoin="round"/>
</svg>
