<svg width="32" height="32" viewBox="0 0 28 27" fill="none" xmlns="http://www.w3.org/2000/svg">
<path d="M19.6131 18.2545C20.1518 17.2662 20.4661 16.1498 20.5293 14.9996C20.5926 13.8494 20.403 12.6994 19.9766 11.6469C19.5502 10.5944 18.8995 9.67042 18.0797 8.95317C17.2598 8.23592 16.2949 7.74653 15.2667 7.52642C12.6043 6.9333 9.8083 8.3105 8.4059 10.8581C7.79972 11.9749 7.47619 13.2498 7.46888 14.5505C7.46156 15.8512 7.77072 17.1304 8.3643 18.2554H19.6131V18.2545Z" fill="#FBC01A" fill-opacity="0.9"/>
<path d="M20.5413 14.5889C20.5301 15.8793 20.21 17.1438 19.6133 18.2549H20.9597C21.4637 17.1116 21.7309 15.8595 21.7421 14.5889C21.7469 15.4398 20.5469 15.4381 20.5413 14.5889Z" fill="#FBC01A" fill-opacity="0.9"/>
<path d="M8.40379 10.858C9.80699 8.31036 12.6022 6.93316 15.2646 7.52628C16.7452 7.86294 18.0763 8.74741 19.0361 10.0324C19.996 11.3173 20.5267 12.9252 20.5398 14.5883C20.5454 13.7382 21.7454 13.7391 21.7398 14.5883C21.7261 12.8389 21.229 11.1354 20.3145 9.704C19.4001 8.27262 18.1115 7.18102 16.6198 6.57412C13.5982 5.35796 10.0638 6.43156 8.03419 9.16396C6.13899 11.716 5.73499 15.302 7.01099 18.2544H8.36139C7.76808 17.1294 7.45915 15.8503 7.4666 14.5498C7.47406 13.2493 7.79764 11.9746 8.40379 10.858Z" fill="#FBC01A" fill-opacity="0.9"/>
<path d="M20.5391 14.5881C20.5447 15.4373 21.7447 15.4391 21.7391 14.5881C21.7335 13.7371 20.5447 13.7354 20.5391 14.5881Z" fill="#FBC01A" fill-opacity="0.9"/>
<path d="M13.3984 0.639513V3.60071C13.3984 4.44991 14.5984 4.45167 14.5984 3.60071V0.639513C14.5984 -0.209687 13.3984 -0.211447 13.3984 0.639513Z" fill="#FBC01A" fill-opacity="0.9"/>
<path d="M7.13978 2.84133L8.48618 5.40653C8.87258 6.14221 9.90938 5.47781 9.52618 4.74037L8.17978 2.17517C7.79018 1.44037 6.75258 2.10389 7.13978 2.84133ZM7.65818 2.50781L9.00458 5.07301L7.65818 2.50781Z" fill="#FBC01A" fill-opacity="0.9"/>
<path d="M3.31866 7.04775C2.64906 6.62183 2.04346 7.76231 2.71306 8.19175L5.04506 9.6728C5.71546 10.0987 6.32026 8.95823 5.65066 8.52879L3.31866 7.04775ZM3.01546 7.61799L5.34746 9.09903L3.01546 7.61799Z" fill="#FBC01A" fill-opacity="0.9"/>
<path d="M1.31788 15.2487H4.00988C4.78188 15.2487 4.78348 13.9287 4.00988 13.9287H1.31788C0.545881 13.9287 0.544281 15.2487 1.31788 15.2487Z" fill="#FBC01A" fill-opacity="0.9"/>
<path d="M26.6778 13.9287H23.9858C23.2139 13.9287 23.2123 15.2487 23.9858 15.2487H26.6778C27.4498 15.2487 27.4514 13.9287 26.6778 13.9287Z" fill="#FBC01A" fill-opacity="0.9"/>
<path d="M24.6777 7.04809L22.3457 8.52914C21.6769 8.95418 22.2809 10.0947 22.9513 9.67314L25.2833 8.1921C25.9521 7.76002 25.3481 6.61865 24.6777 7.04809ZM22.6489 9.0985L24.9809 7.61746L22.6489 9.0985Z" fill="#FBC01A" fill-opacity="0.9"/>
<path d="M19.8221 2.17539L18.4797 4.74059C18.0925 5.47803 19.1293 6.14331 19.5197 5.40675L20.8661 2.84155C21.2453 2.10499 20.2085 1.43971 19.8221 2.17539ZM18.9941 5.07323L20.3405 2.50803L18.9941 5.07323Z" fill="#FBC01A" fill-opacity="0.9"/>
<path d="M26.5862 18.2549H20.9606C20.862 18.4802 20.7553 18.7002 20.6406 18.9149H23.8166V19.5749H26.5862C27.3606 19.5749 27.3606 18.2549 26.5862 18.2549Z" fill="#FBC01A" fill-opacity="0.9"/>
<path d="M1.41163 18.9149H7.33163C7.21536 18.699 7.1087 18.479 7.01163 18.2549H1.41163C0.639631 18.2549 0.638031 19.5749 1.41163 19.5749H4.18123V18.9149H1.41163Z" fill="#FBC01A" fill-opacity="0.9"/>
<path d="M19.6129 18.2549H8.36328C8.4848 18.4833 8.61836 18.7036 8.76328 18.9149H19.2113C19.3558 18.703 19.4899 18.4827 19.6129 18.2549Z" fill="#FBC01A" fill-opacity="0.9"/>
<path d="M8.76612 18.9149C8.6212 18.7036 8.48764 18.4833 8.36612 18.2549H7.01172C7.10825 18.479 7.21492 18.699 7.33172 18.9149H8.76612Z" fill="#FBC01A" fill-opacity="0.9"/>
<path d="M19.2148 18.9149H20.6404C20.7562 18.7002 20.8628 18.4802 20.9604 18.2549H19.614C19.4918 18.4826 19.3586 18.7029 19.2148 18.9149Z" fill="#FBC01A" fill-opacity="0.9"/>
<path d="M7.36919 18.9853C7.35639 18.9616 7.34439 18.9378 7.33159 18.9141H4.18359V19.5741H7.72599C7.59959 19.3849 7.48119 19.1913 7.36919 18.9853Z" fill="#FBC01A" fill-opacity="0.9"/>
<path d="M9.28563 19.5741H18.708C18.888 19.3652 19.0566 19.1448 19.2128 18.9141H8.76562C8.81469 18.985 8.86509 19.0549 8.91682 19.1235C9.03416 19.2807 9.15709 19.4309 9.28563 19.5741Z" fill="#FBC01A" fill-opacity="0.9"/>
<path d="M20.6389 18.9141C20.5168 19.1405 20.3858 19.3605 20.2461 19.5741H23.8149V18.9141H20.6389Z" fill="#FBC01A" fill-opacity="0.9"/>
<path d="M18.707 19.5741H20.2374C20.3772 19.3605 20.5081 19.1405 20.6302 18.9141H19.2118C19.0556 19.1448 18.887 19.3652 18.707 19.5741Z" fill="#FBC01A" fill-opacity="0.9"/>
<path d="M8.91763 19.1235C8.8643 19.0549 8.8139 18.985 8.76643 18.9141H7.33203C7.34483 18.9378 7.35683 18.9616 7.36963 18.9853C7.48163 19.1886 7.60083 19.3849 7.72643 19.5741H9.28723C9.15923 19.4303 9.03603 19.2801 8.91763 19.1235Z" fill="#FBC01A" fill-opacity="0.9"/>
<path d="M24.0124 22.4481H23.8164V23.1081H24.0124C24.7844 23.1081 24.786 21.7881 24.0124 21.7881H23.8164V22.4481H24.0124Z" fill="#193651" fill-opacity="0.8"/>
<path d="M3.98585 22.4481H4.18185V21.7881H3.98585C3.21385 21.7881 3.21225 23.1081 3.98585 23.1081H4.18185V22.4481H3.98585Z" fill="#FBC01A" fill-opacity="0.9"/>
<path d="M10.2305 22.9102L10.4145 23.1038H10.6545L10.2305 22.9102Z" fill="#FBC01A" fill-opacity="0.9"/>
<path d="M18.1499 21.7676C17.7815 22.0313 17.3928 22.2589 16.9883 22.4478H23.8131V21.7878H19.0699C18.7659 21.7843 18.4579 21.772 18.1499 21.7676Z" fill="#FBC01A" fill-opacity="0.9"/>
<path d="M17.3438 23.1038H17.5838L17.7678 22.9102L17.3438 23.1038Z" fill="#FBC01A" fill-opacity="0.9"/>
<path d="M17.3436 22.4473L13.9996 25.9673L10.6556 22.4473H4.18359V23.1073H10.4148L10.2308 22.9137L10.6548 23.1073H10.4148L13.5756 26.4346C13.6896 26.5553 13.8417 26.6227 14 26.6227C14.1583 26.6227 14.3104 26.5553 14.4244 26.4346L17.5852 23.1073H17.3452L17.7692 22.9137L17.5852 23.1073H23.8156V22.4473H17.3436Z" fill="#FBC01A" fill-opacity="0.9"/>
<path d="M10.6556 22.448H11.0644C10.6417 22.2582 10.2348 22.0282 9.8484 21.7607C9.658 21.7731 9.47879 21.788 9.33399 21.788H4.18359V22.448H10.6556Z" fill="#FBC01A" fill-opacity="0.9"/>
<path d="M17.3445 21.7844C16.9981 21.8108 16.7661 22.1364 16.5309 22.3881L16.4805 22.448H16.9949C17.3993 22.2602 17.788 22.0337 18.1565 21.7712C17.8829 21.7633 17.6117 21.7642 17.3445 21.7844Z" fill="#FBC01A" fill-opacity="0.9"/>
<path d="M11.0909 21.9889C10.8085 21.7196 10.2965 21.7249 9.84766 21.7557C10.2341 22.0231 10.641 22.2531 11.0637 22.443H11.5549C11.4013 22.2898 11.2466 22.1385 11.0909 21.9889Z" fill="#FBC01A" fill-opacity="0.9"/>
<path d="M14.4222 25.4976C14.2809 25.3492 14.1404 25.1996 14.0006 25.0488L13.5742 25.4976H14.4222Z" fill="#FBC01A" fill-opacity="0.9"/>
<path d="M15.4778 23.4959L14.0002 25.0483C14.1405 25.199 14.281 25.3486 14.4218 25.4971H13.5762L14.0026 25.0483C13.289 24.2818 12.5842 23.4959 11.8546 22.7471C11.5868 22.6616 11.3232 22.5605 11.065 22.4443H10.6562L14.0002 25.9679L17.3442 22.4479H16.9915C16.7244 22.5725 16.4508 22.6798 16.1722 22.7691L15.4778 23.4959Z" fill="#FBC01A" fill-opacity="0.9"/>
<path d="M16.1719 22.7641C16.4504 22.6762 16.7239 22.5705 16.9911 22.4473H16.4799L16.1719 22.7641Z" fill="#FBC01A" fill-opacity="0.9"/>
<path d="M11.5537 22.4473H11.0625C11.3207 22.5634 11.5842 22.6645 11.8521 22.75C11.7529 22.6462 11.6534 22.5452 11.5537 22.4473Z" fill="#FBC01A" fill-opacity="0.9"/>
<path d="M17.3413 25.3135C16.5693 25.3135 16.5677 26.6335 17.3413 26.6335H21.7173C22.4893 26.6335 22.4909 25.3135 21.7173 25.3135H17.3413Z" fill="#FBC01A" fill-opacity="0.9"/>
<path d="M10.6548 25.3135H6.27882C5.50682 25.3135 5.50522 26.6335 6.27882 26.6335H10.6548C11.4268 26.6335 11.4276 25.3135 10.6548 25.3135Z" fill="#FBC01A" fill-opacity="0.9"/>
</svg>
