<svg width="29" height="31" viewBox="0 0 29 31" fill="none" xmlns="http://www.w3.org/2000/svg">
<g clip-path="url(#clip0_2236_464)">
<path d="M18.3947 25.7311C19.9728 24.9915 21.3109 23.909 22.3799 22.6183C18.3866 22.506 14.7127 20.0658 13.1276 15.9806C11.5424 11.8955 12.4833 7.29221 15.1737 4.04701C13.5862 4.00143 11.9491 4.3136 10.3711 5.05326C4.82488 7.65297 2.12441 14.39 4.33993 20.0997C6.55545 25.8093 12.8485 28.3308 18.3947 25.7311Z" fill="#FBC01A" fill-opacity="0.9"/>
<path d="M12.4032 16.3202C13.8837 20.1356 17.0623 22.6108 20.6826 23.267C19.923 23.9531 19.0614 24.5372 18.1053 24.9853C12.9591 27.3975 7.11995 25.0578 5.0643 19.7601C3.00865 14.4625 5.51425 8.21131 10.6605 5.79908C11.6166 5.35094 12.5965 5.07184 13.5728 4.9442C11.4976 8.27007 10.9227 12.5047 12.4032 16.3202Z" stroke="#FBC01A" stroke-opacity="0.9" stroke-width="1.6"/>
<path d="M20.2185 8.07478C20.2609 7.97958 20.2997 7.88281 20.3348 7.78472C20.4235 7.82474 20.5139 7.86097 20.6057 7.89329C20.5634 7.98849 20.5246 8.08526 20.4895 8.18335C20.4008 8.14332 20.3104 8.1071 20.2185 8.07478Z" stroke="#FBC01A" stroke-opacity="0.9" stroke-width="2"/>
<path d="M16.699 14.3062C16.7413 14.211 16.7801 14.1143 16.8153 14.0162C16.904 14.0562 16.9944 14.0924 17.0862 14.1247C17.0439 14.2199 17.0051 14.3167 16.97 14.4148C16.8812 14.3748 16.7908 14.3385 16.699 14.3062Z" stroke="#FBC01A" stroke-opacity="0.9" stroke-width="2"/>
<path d="M22.3596 16.2361C22.3173 16.3313 22.2785 16.428 22.2434 16.5261C22.1547 16.4861 22.0643 16.4499 21.9724 16.4176C22.0148 16.3224 22.0536 16.2256 22.0887 16.1275C22.1774 16.1675 22.2678 16.2037 22.3596 16.2361Z" stroke="#FBC01A" stroke-opacity="0.9" stroke-width="2"/>
</g>
<defs>
<clipPath id="clip0_2236_464">
<rect width="22.1831" height="22.18" fill="white" transform="matrix(0.905465 -0.424421 0.36175 0.932275 0.328125 9.76074)"/>
</clipPath>
</defs>
</svg>
